<svg xmlns="http://www.w3.org/2000/svg" xmlns:xlink="http://www.w3.org/1999/xlink" xmlns:inkscape="http://www.inkscape.org/namespaces/inkscape" version="1.1" width="750" height="310" viewBox="30 50 325 135">
<defs>
<clipPath id="clip_1">
<path transform="matrix(.24,0,0,.24,0,0)" d="M0 0H1562.5V1562.5H0Z" clip-rule="evenodd"/>
</clipPath>
<clipPath id="clip_2">
<path transform="matrix(.24,0,0,.24,0,0)" d="M0 0H1562.5V1562.5H0Z" clip-rule="evenodd"/>
</clipPath>
<clipPath id="clip_3">
<path transform="matrix(.24,0,0,.24,0,0)" d="M0 0H1562.5V1562.5H0Z" clip-rule="evenodd"/>
</clipPath>
<clipPath id="clip_4">
<path transform="matrix(.24,0,0,.24,40.079999,83.04)" d="M0 0H1226V401H0Z" clip-rule="evenodd"/>
</clipPath>
<path id="font_5_71" d="M.5149994 .6000061C.57833358 .6000061 .6269989 .59250387 .6609955 .5774994 .69500228 .56249496 .71866866 .5419922 .7319946 .5159912 .7453308 .4900004 .7519989 .45967103 .7519989 .42500306V.3959961C.7519989 .32933555 .7336629 .28067018 .69699099 .25 .66032919 .21932984 .59966537 .20399475 .5149994 .20399475H.20599365V0H.12399292V.6000061H.5149994M.66799929 .3959961V.42500306C.66799929 .46033225 .6556651 .4849955 .6309967 .49899293 .6063283 .5130005 .56433108 .5200043 .5050049 .5200043H.20599365V.28399659H.5050049C.5670064 .28399659 .60967 .29249574 .6329956 .30949403 .65633139 .32650248 .66799929 .35533653 .66799929 .3959961Z"/>
<path id="font_5_74" d="M.79200747 .42399598C.79200747 .3833364 .7840068 .3516693 .7680054 .32899476 .75200399 .30633036 .72933456 .29033409 .69999697 .28100587 .72933456 .2669983 .75083419 .24799602 .76449587 .22399903 .7781677 .20000203 .78500369 .17233785 .78500369 .14100647V.05999756C.78500369 .04933675 .78550216 .03900655 .786499 .029006958 .7874959 .019007365 .7886607 .009338379 .7899933 0H.6970062C.69567367 .009338379 .69467166 .018839518 .69400027 .028503418 .69332888 .038167318 .69299319 .047332765 .69299319 .055999757V.13600159C.69299319 .15532939 .68999227 .17299398 .6839905 .18899536 .67799887 .20499675 .6661682 .21782939 .64849856 .22749329 .63082888 .23716736 .6039937 .2420044 .56799319 .2420044H.21099854V0H.12399292V.6000061H.5930023C.6596629 .6000061 .709493 .5863393 .7424927 .55900576 .7755025 .5316722 .79200747 .4920044 .79200747 .44000245V.42399598M.70799258 .42399598V.44000245C.70799258 .46333824 .6999919 .48250328 .6839905 .49749757 .66799929 .512502 .63766989 .5200043 .5930023 .5200043H.21099854V.32699586H.5930023C.6343333 .32699586 .66382858 .335495 .68148806 .3524933 .6991577 .36950175 .70799258 .39333598 .70799258 .42399598Z"/>
<path id="font_5_2" d="M.66400149 0 .602005 .11300659H.16099549L.09899902 0H.005004883L.3350067 .598999 .33399964 .6000061H.42900086V.598999L.7579956 0H.66400149M.20500183 .19299317H.55799868L.38200379 .51400759 .20500183 .19299317Z"/>
<path id="font_5_14" d="M.47599793-.009994507C.3793284-.009994507 .3019918 .0030008953 .24398804 .0289917 .18599446 .054992677 .14416504 .09049479 .118499759 .13549805 .09283447 .1805013 .08000183 .23066712 .08000183 .28599549V.31599427C.08000183 .37199403 .09283447 .42232768 .118499759 .46699525 .14416504 .5116628 .18599446 .5469971 .24398804 .57299807 .3019918 .598999 .3793284 .6119995 .47599793 .6119995 .55733749 .6119995 .6266734 .60199996 .68400576 .58200076 .7413381 .5620015 .78567 .5348358 .81700137 .50050356 .8483327 .46617127 .865331 .42733766 .8679962 .3840027H.77900698C.7736664 .42799888 .7439931 .46366374 .6899872 .4909973 .6359914 .5183309 .5646617 .5319977 .47599793 .5319977 .3660024 .5319977 .28650413 .51283267 .23750305 .47450257 .188502 .4361725 .16400147 .3833364 .16400147 .31599427V.28599549C.16400147 .21933492 .188502 .16667176 .23750305 .12800598 .28650413 .08934021 .3660024 .070007327 .47599793 .070007327 .57133486 .070007327 .6430003 .08400472 .69099429 .11199951 .7389984 .14000447 .7680003 .17767334 .7779999 .2250061H.8670044C.8610026 .18033855 .8435008 .14016724 .8144989 .10449219 .785497 .06882731 .74332687 .040827436 .6879883 .020492554 .6326599 .00016784668 .56199648-.009994507 .47599793-.009994507Z"/>
<path id="font_5_61" d="M.47599793-.009994507C.3793284-.009994507 .3019918 .0030008953 .24398804 .0289917 .18599446 .054992677 .14416504 .08982849 .118499759 .13349915 .09283447 .1771698 .08000183 .22533672 .08000183 .27799989V.32200624C.08000183 .37600199 .09283447 .4248301 .118499759 .4684906 .14416504 .51216128 .18599446 .5469971 .24398804 .57299807 .3019918 .598999 .3793284 .6119995 .47599793 .6119995 .57199606 .6119995 .648997 .5994975 .70700076 .5744934 .76500448 .5494995 .80700179 .5153351 .83299258 .47200013 .85899356 .42866517 .871994 .3799998 .871994 .32600404V.28199769C.871994 .2426707 .8649953 .20550537 .8509979 .17050171 .83700057 .13549805 .81466677 .104497279 .7839966 .07749939 .7533366 .050501508 .71267196 .029169718 .66200259 .013504028 .6113332-.0021616619 .54933169-.009994507 .47599793-.009994507M.47599793 .070007327C.55066427 .070007327 .61082968 .07833862 .65649417 .09500122 .70216879 .11166382 .73550418 .13516236 .75650027 .16549683 .77749636 .1958313 .7879944 .23133342 .7879944 .27200318V.31599427C.7879944 .380661 .7629954 .4328257 .71299746 .4724884 .66299948 .51216128 .58399966 .5319977 .47599793 .5319977 .3660024 .5319977 .28650413 .5129954 .23750305 .47499085 .188502 .43699647 .16400147 .3860016 .16400147 .32200624V.27799989C.16400147 .21533711 .188502 .16500347 .23750305 .1269989 .28650413 .08900452 .3660024 .070007327 .47599793 .070007327Z"/>
<path id="font_5_99" d="M1.0209961 .6000061H1.1060028L.8959961 0H.798996L.55999758 .5130005 .32000733 0H.2230072L.013000488 .6000061H.0980072L.27400209 .09700012 .5090027 .6000061H.6100006L.8450012 .09700012 1.0209961 .6000061Z"/>
<path id="font_5_56" d="M.70799258 .6000061H.7899933V0H.6799927L.20599365 .5119934V0H.12399292V.6000061H.23300171L.70799258 .08799744V.6000061Z"/>
<path id="font_5_39" d="M.12399292 0V.6000061H.20599365V0H.12399292Z"/>
<path id="font_5_1" d=""/>
<path id="font_5_78" d="M.701004 .41200257C.701004 .45267234 .6776683 .48234049 .6309967 .5010071 .5843353 .51967367 .52133688 .52900698 .44200135 .52900698 .3873342 .52900698 .33916728 .5265045 .2975006 .52149966 .25583396 .51650497 .22333272 .50867208 .19999695 .4980011 .17666118 .4873301 .16499329 .47332765 .16499329 .45599366V.44099427C.16499329 .43166606 .16749065 .4225006 .17248535 .41349793 .17749024 .40449525 .18849182 .3959961 .20549011 .3880005 .22249858 .38000489 .24849956 .37250266 .28349305 .36549378 .3184967 .3584951 .3659973 .35199485 .42599488 .34599305 .5053304 .33866883 .5708313 .3295034 .62249758 .3184967 .6741638 .3075002 .7128296 .29100038 .7384949 .2689972 .76416018 .24699402 .7769928 .21499634 .7769928 .17300415V.15899658C.7769928 .10166422 .7489929 .05916341 .69299319 .03149414 .6369934 .0038350423 .54633077-.009994507 .42100526-.009994507 .30366517-.009994507 .2174937 .008168538 .16249085 .04449463 .10749817 .080830898 .08000183 .1313324 .08000183 .19599915H.16200257C.16200257 .15532939 .18283589 .12416077 .22450257 .102493289 .26616923 .080835979 .33167015 .070007327 .42100526 .070007327 .468338 .070007327 .51266989 .07250468 .55400088 .07749939 .59533187 .08250427 .62882998 .09150187 .65449526 .10449219 .6801605 .117492679 .69299319 .13566081 .69299319 .15899658V.17300415C.69299319 .18167115 .69032797 .19033814 .68499758 .19900513 .6796672 .20767212 .6681671 .21600342 .65049746 .22399903 .63282778 .23199463 .60566207 .23949178 .56900027 .24649048 .53233847 .25349937 .4826711 .26000468 .41999818 .26600648 .34000144 .27467347 .274999 .28467307 .22499085 .29600526 .17499288 .30733744 .13849385 .32416789 .115493778 .34649659 .09249369 .36883546 .08099365 .4003347 .08099365 .44099427V.45599366C.08099365 .5053304 .10932922 .54316207 .16600037 .5694885 .22267151 .5958252 .31467185 .60899356 .44200135 .60899356 .54933169 .60899356 .6329956 .59349569 .69299319 .5625 .7530009 .53150436 .78300479 .4813385 .78300479 .41200257H.701004Z"/>
<path id="font_5_105" d="M.6380005 .6000061H.75L.41200257 .22000122V0H.33000184V.22099304L-.007003784 .6000061H.10499573L.37199403 .29899598 .6380005 .6000061Z"/>
<path id="font_5_37" d="M.75 .6000061H.83200076V0H.75V.2630005H.20599365V0H.12399292V.6000061H.20599365V.33299256H.75V.6000061Z"/>
<path id="font_5_84" d="M.6629944 .6000061V.5220032H.3710022V0H.28900147V.5220032H-.0030059815V.6000061H.6629944Z"/>
<path id="font_5_23" d="M.73599246 .5269928H.20599365V.32899476H.68400576V.2559967H.20599365V.07299805H.73599246V0H.12399292V.6000061H.73599246V.5269928Z"/>
<path id="font_6_110" d="M.6649933 .6000061V.5700073L.11399841 .04600525H.6649933V0H.029006958V.037002565L.5720062 .55400088H.029006958V.6000061H.6649933Z"/>
<path id="font_6_190" d="M.38900758-.009994507C.27834068-.009994507 .19750469 .01133728 .14649964 .054000856 .09550476 .09666443 .070007327 .15566509 .070007327 .23100281V.26800538C.070007327 .34466554 .09550476 .4039968 .14649964 .44599916 .19750469 .4880015 .27834068 .5090027 .38900758 .5090027 .4996643 .5090027 .5804901 .48816935 .631485 .4465027 .68249008 .40483604 .70799258 .34633384 .70799258 .2709961V.23500061C.70799258 .15966289 .68249008 .09999593 .631485 .055999757 .5804901 .012003581 .4996643-.009994507 .38900758-.009994507M.38900758 .037994386C.48033653 .037994386 .54766848 .054158529 .5910034 .08648682 .6343384 .11882528 .65600588 .16832988 .65600588 .23500061V.2709961C.65600588 .33633424 .634669 .38433329 .59199526 .4149933 .54933169 .44566346 .4816691 .46099855 .38900758 .46099855 .29766847 .46099855 .23033142 .44533286 .18699646 .41400147 .1436615 .38267008 .12199402 .33400474 .12199402 .26800538V.23100281C.12199402 .16500347 .1436615 .11633301 .18699646 .084991458 .23033142 .053660077 .29766847 .037994386 .38900758 .037994386Z"/>
<path id="font_6_160" d="M.29499818 .6239929C.24833679 .6239929 .21550496 .6141612 .19650269 .5944977 .17750041 .57483419 .16733296 .54333499 .16600037 .5H.35699464V.45399476H.16600037V0H.115997318V.45399476H-.0030059815V.5H.115997318C.11732992 .53067019 .12316386 .5588379 .13349915 .5845032 .14383443 .61016848 .16183472 .6308339 .1875 .64649966 .21316529 .66216537 .248998 .66999819 .29499818 .66999819 .31966654 .66999819 .34116618 .66849777 .35949708 .6654968 .37782798 .6624959 .3953298 .65799459 .41200257 .6519928L.3999939 .61099246C.3666687 .6196594 .33167015 .6239929 .29499818 .6239929Z"/>
<path id="font_6_167" d="M.115997318 .5700073C.09200033 .5700073 .08000183 .57934066 .08000183 .5980072V.602005C.08000183 .6206716 .09200033 .6300049 .115997318 .6300049 .13999431 .6300049 .1519928 .6206716 .1519928 .602005V.598999C.1519928 .5796712 .13999431 .5700073 .115997318 .5700073M.08999634 0V.5H.13999939V0H.08999634Z"/>
<path id="font_6_1" d=""/>
<path id="font_6_113" d="M.34899903 .66999819C.32500205 .66999819 .31300355 .6793315 .31300355 .69799807V.70199587C.31300355 .7206624 .32500205 .7299957 .34899903 .7299957 .372996 .7299957 .3849945 .7206624 .3849945 .70199587V.6990051C.3849945 .6796672 .372996 .66999819 .34899903 .66999819M.6649933 .6000061V.5700073L.11399841 .04600525H.6649933V0H.029006958V.037002565L.5720062 .55400088H.029006958V.6000061H.6649933Z"/>
<path id="font_6_184" d="M.9470062 .5090027C1.0283356 .5090027 1.0920004 .48883567 1.1380005 .4485016 1.1840006 .4081675 1.2070007 .3523356 1.2070007 .28100587V0H1.1549988V.27200318C1.1549988 .33733116 1.1361643 .38549296 1.0984955 .41648866 1.0608368 .4474945 1.0103403 .46299745 .9470062 .46299745 .8903351 .46299745 .8421631 .45166526 .80249026 .42900086 .7628276 .40633647 .7328288 .3753357 .7124939 .33599855 .6921692 .29666139 .68200686 .2516632 .68200686 .20100403V0H.6300049V.27200318C.6300049 .33733116 .6111705 .38549296 .5735016 .41648866 .5358327 .4474945 .4853312 .46299745 .42199708 .46299745 .3653361 .46299745 .3171692 .45166526 .27749635 .42900086 .23783367 .40633647 .20783489 .3753357 .1875 .33599855 .16716512 .29666139 .15699768 .2516632 .15699768 .20100403V0H.10699463V.5H.15699768V.3600006C.17966207 .406662 .21332805 .443161 .2579956 .46949769 .30266319 .49583436 .35733033 .5090027 .42199708 .5090027 .4900004 .5090027 .5460002 .49450175 .58999636 .46549989 .6340027 .43649803 .66233828 .3959961 .67500308 .34399415 .69633486 .39533488 .72983297 .43566896 .77549746 .46499635 .8211619 .4943339 .8783315 .5090027 .9470062 .5090027Z"/>
<path id="font_6_176" d="M.13000489 .5700073C.10599772 .5700073 .09399414 .57934066 .09399414 .5980072V.602005C.09399414 .6206716 .10599772 .6300049 .13000489 .6300049 .15400188 .6300049 .16600037 .6206716 .16600037 .602005V.598999C.16600037 .5796712 .15400188 .5700073 .13000489 .5700073M-.10699463-.11099243C-.09766642-.11432902-.08733622-.11732992-.07600403-.11999512-.06467184-.12266032-.052337648-.12399292-.039001466-.12399292-.010996501-.12399292 .013834636-.119659427 .035491945-.11099243 .057159425-.10233561 .074157718-.08750407 .08648682-.0664978 .09882609-.04550171 .10499573-.016337077 .10499573 .020996094V.5H.15499878L.15400696 .020996094C.15400696-.025004069 .14583843-.062001546 .12950135-.08999634 .11316427-.118001308 .09099325-.13833618 .06298828-.15100098 .03499349-.16366577 .002665202-.16999817-.033996583-.16999817-.050669355-.16999817-.06650289-.16816204-.08149719-.16448975-.09650167-.16082764-.11000061-.15633138-.12199402-.15100098L-.10699463-.11099243Z"/>
<path id="font_6_151" d="M.3789978-.009994507C.2736613-.009994507 .19582622 .01133728 .14549256 .054000856 .09516907 .09666443 .070007327 .15566509 .070007327 .23100281V.26800538C.070007327 .34333293 .09567261 .4023285 .14700318 .44499208 .19833374 .4876658 .2793325 .5090027 .3899994 .5090027 .47599793 .5090027 .54433187 .49650065 .5950012 .47149659 .6456706 .4465027 .67100527 .41233827 .67100527 .3690033V.3480072C.67100527 .31733705 .65816757 .29250083 .63249209 .27349855 .6068268 .25449626 .57266238 .24049378 .5299988 .23149109 .4873352 .22249858 .44033814 .21800232 .38900758 .21800232 .34899903 .21800232 .30549623 .22016907 .25849916 .22450257 .21150208 .22883606 .16600037 .23467 .12199402 .2420044 .1186676 .17066448 .13950093 .11849467 .18449402 .085494998 .22949727 .05249532 .29433189 .035995485 .3789978 .035995485 .45167033 .035995485 .51017257 .04782613 .5545044 .07148743 .59883627 .0951589 .6240031 .1309967 .6300049 .17900086H.68299868C.6769969 .1203359 .64766439 .074167888 .5950012 .040496828 .5423381 .0068359377 .4703369-.009994507 .3789978-.009994507M.3899994 .26400758C.43133036 .26400758 .46932984 .26667277 .5039978 .27200318 .5386658 .2773336 .5664978 .28633119 .5874939 .29899598 .6085002 .31166078 .6190033 .32899476 .6190033 .35099793V.3670044C.6190033 .39499919 .6006673 .41783143 .56399539 .4355011 .52733358 .45317079 .46933494 .46200563 .3899994 .46200563 .29799906 .46200563 .23116558 .44683839 .1894989 .4165039 .14783223 .38616944 .12533061 .34333293 .12199402 .28799439 .16200257 .2813314 .20617168 .27566529 .25450135 .2709961 .30283103 .26633708 .34799705 .26400758 .3899994 .26400758Z"/>
<path id="font_6_228" d="M.9089966 .5H.9640045L.7489929 0H.69099429L.4909973 .44400025 .29100038 0H.23300171L.018005372 .5H.07299805L.2630005 .057998659 .46200563 .5H.5200043L.71899417 .057998659 .9089966 .5Z"/>
<path id="font_6_207" d="M.628006 .33099366H.576004V.36099244C.576004 .42899577 .5033366 .46299745 .3580017 .46299745 .20133464 .46299745 .1230011 .43533326 .1230011 .38000489V.3659973C.1230011 .34999595 .1289978 .33649699 .14099121 .3255005 .1529948 .314504 .17483013 .30517069 .20649719 .2975006 .23816426 .28983055 .28399659 .28266398 .34399415 .27600099 .41333009 .26933799 .46833293 .2610016 .5090027 .25099183 .5496724 .24099224 .5788371 .22699483 .5964966 .20899964 .61416628 .19100444 .6230011 .16633606 .6230011 .1349945V.117996219C.6230011 .07599386 .5986684 .044158937 .55000308 .022491456 .5013377 .00083414718 .43133546-.009994507 .33999635-.009994507 .16000366-.009994507 .070007327 .043004354 .070007327 .14900208V.18400574H.12199402V.14900208C.12199402 .1103363 .13965862 .08200073 .1749878 .06399536 .21032715 .046000165 .26533 .037002565 .33999635 .037002565 .4939982 .037002565 .57099917 .06566874 .57099917 .1230011V.13699341C.57099917 .15565999 .5649974 .17065938 .5529938 .18199158 .54100039 .19333394 .518336 .20283509 .4850006 .210495 .45166526 .21816509 .40299989 .22500102 .33900453 .23100281 .27300517 .2383372 .22050476 .2470042 .1815033 .25700379 .14250183 .2670034 .11433411 .28067018 .09700012 .29800416 .07966614 .31533814 .070999149 .33866883 .070999149 .36799623V.3849945C.070999149 .42633567 .09549967 .45750428 .14450073 .47850038 .19350179 .49949647 .2646688 .5099945 .3580017 .5099945 .5380046 .5099945 .628006 .46032716 .628006 .36099244V.33099366Z"/>
<path id="font_6_177" d="M.576004 0 .30099488 .23699951H.15699768V0H.10699463V.66000369H.15699768V.28700257H.30599977L.55400088 .5H.6300049L.3540039 .2599945 .6529999 0H.576004Z"/>
<clipPath id="clip_7">
<path transform="matrix(.24,0,0,.24,0,0)" d="M0 0H1562.5V1562.5H0Z"/>
</clipPath>
<clipPath id="clip_8">
<path transform="matrix(.24,0,0,.24,0,0)" d="M0 0H1562.5V1562.5H0Z"/>
</clipPath>
<clipPath id="clip_9">
<path transform="matrix(.24,0,0,.24,0,0)" d="M1191.1563 287.57597H1400.5313V496.95097H1191.1563Z"/>
</clipPath>
<clipPath id="clip_10">
<path transform="matrix(.24,0,0,.24,0,0)" d="M1191.1563 287.57597H1399.1152V495.53495H1191.1563Z"/>
</clipPath>
<clipPath id="clip_11">
<path transform="matrix(.24,0,0,.24,0,0)" d="M1295.1358 287.57597C1237.7095 287.57597 1191.1563 334.12916 1191.1563 391.55546 1191.1563 448.98176 1237.7095 495.53495 1295.1358 495.53495 1352.562 495.53495 1399.1152 448.98176 1399.1152 391.55546 1399.1152 334.12916 1352.562 287.57597 1295.1358 287.57597Z"/>
</clipPath>
</defs>
<g>
<g clip-path="url(#clip_1)">
</g>
<g clip-path="url(#clip_2)">
</g>
<g clip-path="url(#clip_3)">
<g>
<g clip-path="url(#clip_4)">
<use data-text="P" xlink:href="#font_5_71" transform="matrix(28.462275,0,0,-28.462275,40.162176,111.69722)" fill="#3d3b3a"/>
<use data-text="R" xlink:href="#font_5_74" transform="matrix(28.462275,0,0,-28.462275,63.259927,111.69722)" fill="#3d3b3a"/>
<use data-text="A" xlink:href="#font_5_2" transform="matrix(28.462275,0,0,-28.462275,88.14975,111.69722)" fill="#3d3b3a"/>
<use data-text="C" xlink:href="#font_5_14" transform="matrix(28.462275,0,0,-28.462275,109.85367,111.69722)" fill="#3d3b3a"/>
<use data-text="O" xlink:href="#font_5_61" transform="matrix(28.462275,0,0,-28.462275,136.8769,111.69722)" fill="#3d3b3a"/>
<use data-text="W" xlink:href="#font_5_99" transform="matrix(28.462275,0,0,-28.462275,163.95703,111.69722)" fill="#3d3b3a"/>
<use data-text="N" xlink:href="#font_5_56" transform="matrix(28.462275,0,0,-28.462275,195.78755,111.69722)" fill="#3d3b3a"/>
<use data-text="I" xlink:href="#font_5_39" transform="matrix(28.462275,0,0,-28.462275,221.78676,111.69722)" fill="#3d3b3a"/>
<use data-text="A" xlink:href="#font_5_2" transform="matrix(28.462275,0,0,-28.462275,231.17377,111.69722)" fill="#3d3b3a"/>
<use data-text=" " xlink:href="#font_5_1" transform="matrix(28.462275,0,0,-28.462275,252.8935,111.69722)" fill="#3d3b3a"/>
<use data-text="P" xlink:href="#font_5_71" transform="matrix(28.462275,0,0,-28.462275,40.162176,144.68827)" fill="#3d3b3a"/>
<use data-text="S" xlink:href="#font_5_78" transform="matrix(28.462275,0,0,-28.462275,63.259927,144.68827)" fill="#3d3b3a"/>
<use data-text="Y" xlink:href="#font_5_105" transform="matrix(28.462275,0,0,-28.462275,87.808399,144.68827)" fill="#3d3b3a"/>
<use data-text="C" xlink:href="#font_5_14" transform="matrix(28.462275,0,0,-28.462275,108.97186,144.68827)" fill="#3d3b3a"/>
<use data-text="H" xlink:href="#font_5_37" transform="matrix(28.462275,0,0,-28.462275,135.9951,144.68827)" fill="#3d3b3a"/>
<use data-text="O" xlink:href="#font_5_61" transform="matrix(28.462275,0,0,-28.462275,163.18901,144.68827)" fill="#3d3b3a"/>
<use data-text="T" xlink:href="#font_5_84" transform="matrix(28.462275,0,0,-28.462275,190.26914,144.68827)" fill="#3d3b3a"/>
<use data-text="E" xlink:href="#font_5_23" transform="matrix(28.462275,0,0,-28.462275,209.01473,144.68827)" fill="#3d3b3a"/>
<use data-text="R" xlink:href="#font_5_74" transform="matrix(28.462275,0,0,-28.462275,231.6858,144.68827)" fill="#3d3b3a"/>
<use data-text="A" xlink:href="#font_5_2" transform="matrix(28.462275,0,0,-28.462275,256.57563,144.68827)" fill="#3d3b3a"/>
<use data-text="P" xlink:href="#font_5_71" transform="matrix(28.462275,0,0,-28.462275,278.27955,144.68827)" fill="#3d3b3a"/>
<use data-text="I" xlink:href="#font_5_39" transform="matrix(28.462275,0,0,-28.462275,301.3773,144.68827)" fill="#3d3b3a"/>
<use data-text="I" xlink:href="#font_5_39" transform="matrix(28.462275,0,0,-28.462275,310.7643,144.68827)" fill="#3d3b3a"/>
<use data-text="Z" xlink:href="#font_6_110" transform="matrix(26.437825,0,0,-26.437825,40.162176,174.68012)" fill="#3d3b3a"/>
<use data-text="o" xlink:href="#font_6_190" transform="matrix(26.437825,0,0,-26.437825,61.043237,174.68012)" fill="#3d3b3a"/>
<use data-text="f" xlink:href="#font_6_160" transform="matrix(26.437825,0,0,-26.437825,84.091609,174.68012)" fill="#3d3b3a"/>
<use data-text="i" xlink:href="#font_6_167" transform="matrix(26.437825,0,0,-26.437825,95.959888,174.68012)" fill="#3d3b3a"/>
<use data-text="i" xlink:href="#font_6_167" transform="matrix(26.437825,0,0,-26.437825,104.52435,174.68012)" fill="#3d3b3a"/>
<use data-text=" " xlink:href="#font_6_1" transform="matrix(26.437825,0,0,-26.437825,113.08884,174.68012)" fill="#3d3b3a"/>
<use data-text="&#x017b;" xlink:href="#font_6_113" transform="matrix(26.437825,0,0,-26.437825,126.14647,174.68012)" fill="#3d3b3a"/>
<use data-text="m" xlink:href="#font_6_184" transform="matrix(26.437825,0,0,-26.437825,147.02754,174.68012)" fill="#3d3b3a"/>
<use data-text="i" xlink:href="#font_6_167" transform="matrix(26.437825,0,0,-26.437825,183.9519,174.68012)" fill="#3d3b3a"/>
<use data-text="j" xlink:href="#font_6_176" transform="matrix(26.437825,0,0,-26.437825,192.51638,174.68012)" fill="#3d3b3a"/>
<use data-text="e" xlink:href="#font_6_151" transform="matrix(26.437825,0,0,-26.437825,201.1337,174.68012)" fill="#3d3b3a"/>
<use data-text="w" xlink:href="#font_6_228" transform="matrix(26.437825,0,0,-26.437825,223.5213,174.68012)" fill="#3d3b3a"/>
<use data-text="s" xlink:href="#font_6_207" transform="matrix(26.437825,0,0,-26.437825,251.98792,174.68012)" fill="#3d3b3a"/>
<use data-text="k" xlink:href="#font_6_177" transform="matrix(26.437825,0,0,-26.437825,272.92189,174.68012)" fill="#3d3b3a"/>
<use data-text="i" xlink:href="#font_6_167" transform="matrix(26.437825,0,0,-26.437825,293.0893,174.68012)" fill="#3d3b3a"/>
<use data-text="e" xlink:href="#font_6_151" transform="matrix(26.437825,0,0,-26.437825,301.65379,174.68012)" fill="#3d3b3a"/>
<use data-text="j" xlink:href="#font_6_176" transform="matrix(26.437825,0,0,-26.437825,324.04139,174.68012)" fill="#3d3b3a"/>
</g>
</g>
</g>
<g clip-path="url(#clip_7)">
<g clip-path="url(#clip_8)">
<g clip-path="url(#clip_9)">
<g clip-path="url(#clip_10)">
<g clip-path="url(#clip_11)">
<path transform="matrix(.75,.000000000000000023252456,-.000000000000000023252456,.75,285.8775,69.01823)" stroke-width="28" stroke-linecap="butt" stroke-miterlimit="4" stroke-linejoin="miter" fill="none" stroke="#000000" d="M33.273439 0C14.897025 0 0 14.897025 0 33.273439 0 51.64985 14.897025 66.546878 33.273439 66.546878 51.64985 66.546878 66.546878 51.64985 66.546878 33.273439 66.546878 14.897025 51.64985 0 33.273439 0Z"/>
</g>
</g>
</g>
</g>
</g>
</g>
</svg>
